<svg width="80" height="80" viewBox="0 0 80 80" fill="none" xmlns="http://www.w3.org/2000/svg">
<path d="M61.5899 24.6335L60.6485 25.5797L61.4789 26.6246C65.2399 31.3574 67.5 37.3457 67.5 43.8572C67.5 59.1303 55.2122 71.5 40.0049 71.5C24.5531 71.5 12.1118 58.7311 12.5093 43.1182L12.5093 43.1173C12.8757 28.3852 25.3576 16.2143 40.0049 16.2143C46.4763 16.2143 52.4303 18.483 57.1708 22.2947L58.2224 23.1403L59.1741 22.1837L61.5824 19.7631C62.2736 19.0921 63.3231 19.1009 63.974 19.7551L64.0062 19.7875L65.0696 18.7295L64.0062 19.7875C64.6707 20.4554 64.658 21.5498 64.0062 22.2049L61.5899 24.6335Z" stroke="white" stroke-width="3"/>
<rect x="50" y="7" width="5" height="18" rx="2.5" transform="rotate(90 50 7)" fill="white"/>
<rect x="38" y="25" width="5" height="18" rx="2.5" fill="white"/>
</svg>
