<svg width="80" height="80" viewBox="0 0 80 80" fill="none" xmlns="http://www.w3.org/2000/svg">
<path d="M20.769 70.4056L20.7409 70.4337L20.7142 70.4633C20.7129 70.4648 20.7053 70.473 20.6835 70.4821C20.66 70.4918 20.6257 70.5 20.5849 70.5H9.77753C9.68216 70.5 9.618 70.4657 9.57614 70.4239C9.53428 70.382 9.5 70.3178 9.5 70.2225V59.4151C9.5 59.3197 9.5165 59.2733 9.59392 59.1959L46.2583 22.5315C46.8441 21.9457 47.7939 21.9457 48.3796 22.5315L57.4675 31.6194C58.0535 32.2054 58.0533 33.1555 57.467 33.7412L20.769 70.4056ZM69.8995 18.4194L70.9601 17.3587L69.8995 18.4194C70.7002 19.22 70.7002 20.51 69.8995 21.3107L70.9601 22.3713L69.8995 21.3107L65.515 25.6951C64.9293 26.2809 63.9795 26.2809 63.3937 25.6951L54.3049 16.6063C53.7191 16.0205 53.7191 15.0707 54.3049 14.485L58.6893 10.1005C59.49 9.29983 60.78 9.29983 61.5806 10.1005L69.8995 18.4194Z" stroke="white" stroke-width="3"/>
</svg>
