<svg width="24" height="24" viewBox="0 0 24 24" fill="none" xmlns="http://www.w3.org/2000/svg">
<path fill-rule="evenodd" clip-rule="evenodd" d="M12.5157 2.10147C12.4757 2.08523 12.4351 2.07086 12.3938 2.05841C12.178 1.99317 11.9576 1.98405 11.748 2.02372C11.6387 2.0444 11.5324 2.07834 11.4312 2.1245C11.2703 2.19768 11.1283 2.2988 11.0083 2.42034C10.8597 2.57065 10.7398 2.75729 10.6625 2.97372L8.8673 8.0004L3.44739 8.0004C3.20064 7.99726 2.95574 8.0612 2.73849 8.18681C2.57568 8.28094 2.42839 8.4097 2.3075 8.57081C2.1997 8.71397 2.11624 8.87827 2.06367 9.05681C1.95201 9.43504 1.98941 9.84217 2.15863 10.1877C2.25475 10.384 2.3934 10.5604 2.57142 10.7004C2.59747 10.7209 2.62421 10.7406 2.6516 10.7592L6.83592 13.6883L4.95401 18.9576C4.9436 18.9858 4.93401 19.0144 4.92525 19.0432C4.86093 19.2536 4.84335 19.469 4.86687 19.6765C4.90835 20.0423 5.07758 20.3834 5.34376 20.6285C5.50474 20.7769 5.69313 20.8828 5.89327 20.9427C6.06833 20.9955 6.24635 21.0113 6.41917 20.9942C6.63097 20.9736 6.84119 20.9029 7.0335 20.7787C7.05271 20.7663 7.07164 20.7535 7.09029 20.7401L12.0002 17.3032L16.9085 20.7391C16.9312 20.7553 16.9543 20.7708 16.9778 20.7857C17.1619 20.9022 17.362 20.9701 17.5639 20.9924C17.7477 21.013 17.9377 20.9963 18.124 20.9375C18.2987 20.8827 18.4641 20.7928 18.6096 20.67C18.9014 20.4239 19.0878 20.0669 19.1328 19.6822C19.1612 19.4363 19.1309 19.1869 19.0463 18.9576L17.1644 13.6883L21.3476 10.76C21.3779 10.7394 21.4074 10.7176 21.4361 10.6947C21.9101 10.3172 22.1013 9.67977 21.949 9.1011C21.8961 8.89937 21.804 8.71466 21.682 8.55654C21.5658 8.40551 21.4262 8.28366 21.2723 8.19294C21.087 8.08318 20.8759 8.01562 20.651 8.00268C20.6185 8.00075 20.5858 7.99999 20.5531 8.00041L15.133 8.0004L13.3395 2.97853C13.2684 2.77762 13.1567 2.59318 13.0107 2.43962C12.874 2.29594 12.7073 2.17929 12.5157 2.10147Z" fill="#D9D9D9"/>
</svg>
