<svg width="80" height="80" viewBox="0 0 80 80" fill="none" xmlns="http://www.w3.org/2000/svg">
<path d="M77.9462 14.2632C79.0166 18.2579 76.4692 22.4435 72.2853 23.5646C71.6007 23.748 70.9346 23.8487 70.2774 23.8301L60.1914 40.3504C60.5373 40.8805 60.7885 41.5138 60.9637 42.1674C62.034 46.1622 59.4867 50.3478 55.3028 51.4689C51.119 52.5899 46.8201 50.2387 45.7497 46.244C45.5745 45.5903 45.4754 44.9163 45.5099 44.2843L33.3297 37.6226C32.7698 37.9672 32.1046 38.2233 31.42 38.4067C30.7353 38.5902 30.0312 38.701 29.374 38.6825L16.5053 59.8795C16.8512 60.4096 17.0927 61.0066 17.2679 61.6603C18.3382 65.655 15.7909 69.8407 11.607 70.9617C7.42317 72.0828 3.12425 69.7316 2.05387 65.7369C0.983484 61.7422 3.53086 57.5565 7.71471 56.4355C8.39934 56.252 9.06539 56.1514 9.72261 56.1699L22.6391 34.999C22.2932 34.4689 22.042 33.8356 21.8668 33.1819C20.7964 29.1872 23.3438 25.0015 27.5276 23.8805C31.7115 22.7594 36.0104 25.1106 37.0808 29.1053C37.2559 29.759 37.355 30.4331 37.3205 31.0651L49.5008 37.7268C50.0607 37.3821 50.7259 37.126 51.4105 36.9426C52.0951 36.7591 52.7992 36.6483 53.4564 36.6668L63.4947 20.1205C63.1488 19.5904 62.9073 18.9934 62.7322 18.3397C61.6618 14.345 64.2092 10.1594 68.393 9.0383C72.5769 7.91724 76.8758 10.2684 77.9462 14.2632Z" stroke="white" stroke-width="3"/>
</svg>
