<svg width="152" height="6" viewBox="0 0 152 6" fill="none" xmlns="http://www.w3.org/2000/svg">
<path fill-rule="evenodd" clip-rule="evenodd" d="M7.31382 3.08495C5.43011 3.38605 3.88941 4.43442 3.08464 5.27686C2.51241 5.8759 1.56291 5.89762 0.963879 5.32538C0.364848 4.75315 0.343125 3.80365 0.91536 3.20462C2.08631 1.97884 4.19547 0.545325 6.84029 0.122554C9.56571 -0.313101 12.7233 0.35005 15.7961 3.12806C16.4106 3.68363 16.4584 4.63217 15.9028 5.24669C15.3472 5.86121 14.3987 5.90899 13.7842 5.35342C11.3665 3.16769 9.11694 2.79672 7.31382 3.08495Z" fill="#CD5833"/>
<path fill-rule="evenodd" clip-rule="evenodd" d="M34.1549 3.08734C32.0851 3.39613 30.4092 4.4665 29.5421 5.31365C28.9496 5.8926 27.9999 5.88157 27.4209 5.28902C26.842 4.69647 26.853 3.74678 27.4456 3.16784C28.6953 1.94676 30.93 0.535259 33.7122 0.120175C36.5624 -0.305045 39.8926 0.33315 43.1649 3.09434C43.798 3.62859 43.8782 4.57495 43.3439 5.20809C42.8097 5.84123 41.8633 5.9214 41.2302 5.38715C38.6199 3.18459 36.1567 2.78868 34.1549 3.08734Z" fill="#CD5833"/>
<path fill-rule="evenodd" clip-rule="evenodd" d="M61.2151 3.08495C59.3314 3.38605 57.7907 4.43442 56.9859 5.27686C56.4137 5.8759 55.4642 5.89762 54.8651 5.32538C54.2661 4.75315 54.2444 3.80365 54.8166 3.20462C55.9876 1.97884 58.0967 0.545325 60.7415 0.122554C63.467 -0.313101 66.6246 0.35005 69.6973 3.12806C70.3118 3.68363 70.3596 4.63217 69.8041 5.24669C69.2485 5.86121 68.2999 5.90899 67.6854 5.35342C65.2678 3.16769 63.0182 2.79672 61.2151 3.08495Z" fill="#CD5833"/>
<path fill-rule="evenodd" clip-rule="evenodd" d="M88.0561 3.08734C85.9863 3.39613 84.3104 4.4665 83.4433 5.31365C82.8508 5.8926 81.9011 5.88157 81.3221 5.28902C80.7432 4.69647 80.7542 3.74678 81.3468 3.16784C82.5966 1.94676 84.8312 0.535259 87.6134 0.120175C90.4636 -0.305045 93.7938 0.33315 97.0661 3.09434C97.6992 3.62859 97.7794 4.57495 97.2452 5.20809C96.7109 5.84123 95.7646 5.9214 95.1314 5.38715C92.5211 3.18459 90.0579 2.78868 88.0561 3.08734Z" fill="#CD5833"/>
<path fill-rule="evenodd" clip-rule="evenodd" d="M115.116 3.08495C113.233 3.38605 111.692 4.43442 110.887 5.27686C110.315 5.8759 109.365 5.89762 108.766 5.32538C108.167 4.75315 108.146 3.80365 108.718 3.20462C109.889 1.97884 111.998 0.545325 114.643 0.122554C117.368 -0.313101 120.526 0.35005 123.599 3.12806C124.213 3.68363 124.261 4.63217 123.705 5.24669C123.15 5.86121 122.201 5.90899 121.587 5.35342C119.169 3.16769 116.919 2.79672 115.116 3.08495Z" fill="#CD5833"/>
<path fill-rule="evenodd" clip-rule="evenodd" d="M21.0175 3.08495C19.1338 3.38605 17.5931 4.43442 16.7883 5.27686C16.2161 5.8759 15.2666 5.89762 14.6676 5.32538C14.0686 4.75315 14.0468 3.80365 14.6191 3.20462C15.79 1.97884 17.8992 0.545325 20.544 0.122554C23.2694 -0.313101 26.427 0.35005 29.4998 3.12806C30.1143 3.68363 30.1621 4.63217 29.6065 5.24669C29.0509 5.86121 28.1024 5.90899 27.4879 5.35342C25.0702 3.16769 22.8206 2.79672 21.0175 3.08495Z" fill="#CD5833"/>
<path fill-rule="evenodd" clip-rule="evenodd" d="M47.8586 3.08734C45.7888 3.39613 44.1128 4.4665 43.2458 5.31365C42.6532 5.8926 41.7035 5.88157 41.1246 5.28902C40.5457 4.69647 40.5567 3.74678 41.1492 3.16784C42.399 1.94676 44.6337 0.535259 47.4159 0.120175C50.266 -0.305045 53.5963 0.33315 56.8686 3.09434C57.5017 3.62859 57.5819 4.57495 57.0476 5.20809C56.5134 5.84123 55.567 5.9214 54.9339 5.38715C52.3236 3.18459 49.8604 2.78868 47.8586 3.08734Z" fill="#CD5833"/>
<path fill-rule="evenodd" clip-rule="evenodd" d="M74.9188 3.08495C73.0351 3.38605 71.4944 4.43442 70.6896 5.27686C70.1174 5.8759 69.1679 5.89762 68.5688 5.32538C67.9698 4.75315 67.9481 3.80365 68.5203 3.20462C69.6913 1.97884 71.8004 0.545325 74.4452 0.122554C77.1707 -0.313101 80.3283 0.35005 83.401 3.12806C84.0155 3.68363 84.0633 4.63217 83.5078 5.24669C82.9522 5.86121 82.0036 5.90899 81.3891 5.35342C78.9715 3.16769 76.7219 2.79672 74.9188 3.08495Z" fill="#CD5833"/>
<path fill-rule="evenodd" clip-rule="evenodd" d="M101.76 3.08734C99.69 3.39613 98.0141 4.4665 97.147 5.31365C96.5545 5.8926 95.6048 5.88157 95.0258 5.28902C94.4469 4.69647 94.4579 3.74678 95.0505 3.16784C96.3003 1.94676 98.5349 0.535259 101.317 0.120175C104.167 -0.305045 107.497 0.33315 110.77 3.09434C111.403 3.62859 111.483 4.57495 110.949 5.20809C110.415 5.84123 109.468 5.9214 108.835 5.38715C106.225 3.18459 103.762 2.78868 101.76 3.08734Z" fill="#CD5833"/>
<path fill-rule="evenodd" clip-rule="evenodd" d="M128.82 3.08495C126.936 3.38605 125.396 4.43442 124.591 5.27686C124.019 5.8759 123.069 5.89762 122.47 5.32538C121.871 4.75315 121.849 3.80365 122.422 3.20462C123.593 1.97884 125.702 0.545325 128.346 0.122554C131.072 -0.313101 134.23 0.35005 137.302 3.12806C137.917 3.68363 137.965 4.63217 137.409 5.24669C136.853 5.86121 135.905 5.90899 135.29 5.35342C132.873 3.16769 130.623 2.79672 128.82 3.08495Z" fill="#CD5833"/>
<path fill-rule="evenodd" clip-rule="evenodd" d="M142.524 3.08495C140.64 3.38605 139.099 4.43442 138.295 5.27686C137.722 5.8759 136.773 5.89762 136.174 5.32538C135.575 4.75315 135.553 3.80365 136.125 3.20462C137.296 1.97884 139.405 0.545325 142.05 0.122554C144.776 -0.313101 147.933 0.35005 151.006 3.12806C151.62 3.68363 151.668 4.63217 151.113 5.24669C150.557 5.86121 149.609 5.90899 148.994 5.35342C146.576 3.16769 144.327 2.79672 142.524 3.08495Z" fill="#CD5833"/>
</svg>
