<svg width="70" height="6" viewBox="0 0 70 6" fill="none" xmlns="http://www.w3.org/2000/svg">
<path fill-rule="evenodd" clip-rule="evenodd" d="M6.81382 3.08495C4.93011 3.38605 3.38941 4.43442 2.58464 5.27686C2.01241 5.8759 1.06291 5.89762 0.463879 5.32538C-0.135152 4.75315 -0.156875 3.80365 0.41536 3.20462C1.58631 1.97884 3.69547 0.545325 6.34029 0.122554C9.06571 -0.313101 12.2233 0.35005 15.2961 3.12806C15.9106 3.68363 15.9584 4.63217 15.4028 5.24669C14.8472 5.86121 13.8987 5.90899 13.2842 5.35342C10.8665 3.16769 8.61694 2.79672 6.81382 3.08495Z" fill="#CD5833"/>
<path fill-rule="evenodd" clip-rule="evenodd" d="M33.6549 3.08734C31.5851 3.39613 29.9092 4.4665 29.0422 5.31365C28.4496 5.8926 27.4999 5.88157 26.921 5.28902C26.342 4.69647 26.3531 3.74678 26.9456 3.16784C28.1954 1.94676 30.43 0.535259 33.2123 0.120175C36.0624 -0.305045 39.3926 0.33315 42.6649 3.09434C43.2981 3.62859 43.3783 4.57495 42.844 5.20809C42.3098 5.84123 41.3634 5.9214 40.7303 5.38715C38.12 3.18459 35.6568 2.78868 33.6549 3.08734Z" fill="#CD5833"/>
<path fill-rule="evenodd" clip-rule="evenodd" d="M60.7151 3.08495C58.8314 3.38605 57.2907 4.43442 56.4859 5.27686C55.9137 5.8759 54.9642 5.89762 54.3651 5.32538C53.7661 4.75315 53.7444 3.80365 54.3166 3.20462C55.4876 1.97884 57.5967 0.545325 60.2415 0.122554C62.967 -0.313101 66.1246 0.35005 69.1973 3.12806C69.8118 3.68363 69.8596 4.63217 69.3041 5.24669C68.7485 5.86121 67.7999 5.90899 67.1854 5.35342C64.7678 3.16769 62.5182 2.79672 60.7151 3.08495Z" fill="#CD5833"/>
<path fill-rule="evenodd" clip-rule="evenodd" d="M20.5176 3.08495C18.6338 3.38605 17.0931 4.43442 16.2884 5.27686C15.7161 5.8759 14.7666 5.89762 14.1676 5.32538C13.5686 4.75315 13.5469 3.80365 14.1191 3.20462C15.29 1.97884 17.3992 0.545325 20.044 0.122554C22.7695 -0.313101 25.9271 0.35005 28.9998 3.12806C29.6143 3.68363 29.6621 4.63217 29.1065 5.24669C28.551 5.86121 27.6024 5.90899 26.9879 5.35342C24.5703 3.16769 22.3207 2.79672 20.5176 3.08495Z" fill="#CD5833"/>
<path fill-rule="evenodd" clip-rule="evenodd" d="M47.3586 3.08734C45.2888 3.39613 43.6128 4.4665 42.7458 5.31365C42.1532 5.8926 41.2035 5.88157 40.6246 5.28902C40.0457 4.69647 40.0567 3.74678 40.6492 3.16784C41.899 1.94676 44.1337 0.535259 46.9159 0.120175C49.766 -0.305045 53.0963 0.33315 56.3686 3.09434C57.0017 3.62859 57.0819 4.57495 56.5476 5.20809C56.0134 5.84123 55.067 5.9214 54.4339 5.38715C51.8236 3.18459 49.3604 2.78868 47.3586 3.08734Z" fill="#CD5833"/>
</svg>
